<svg width="44" height="46" viewBox="0 0 44 46" fill="none" xmlns="http://www.w3.org/2000/svg">
<path fill-rule="evenodd" clip-rule="evenodd" d="M32.1039 8.40357C30.5384 8.5785 28.8812 8.37892 27.2424 7.74992C25.2456 6.98358 23.5433 5.68243 22.247 4.06482C19.8566 7.63779 15.5456 9.28167 11.2847 7.95989C11.2659 8.02477 11.2474 8.08998 11.2294 8.1555C9.47636 14.5469 12.7818 21.5423 18.6123 23.7801C24.4429 26.018 30.5906 22.6508 32.3437 16.2594C33.0683 13.6178 32.9287 10.873 32.1039 8.40357Z" fill="#3F9272"/>
<path fill-rule="evenodd" clip-rule="evenodd" d="M21.6871 28.8641C30.8128 28.8641 38.2106 21.9669 38.2106 13.4587C38.2106 10.2443 40.7692 7.25965 42.4047 10.0269C43.0207 11.0692 43.3742 12.285 43.3742 13.5834V21.1776C43.3742 25.409 39.8488 28.7549 36.315 31.0823C33.7225 32.7899 31.6325 35.3105 30.3435 38.3194C28.7714 41.9893 25.6796 45.3565 21.6871 45.3565C17.6946 45.3565 14.6028 41.9893 13.0307 38.3194C11.7417 35.3105 9.65176 32.7899 7.0592 31.0823C3.52547 28.7549 0 25.409 0 21.1776V13.5834C0 12.285 0.353491 11.0692 0.969484 10.0269C2.60499 7.25966 5.1636 10.2443 5.1636 13.4587C5.1636 21.9669 12.5614 28.8641 21.6871 28.8641Z" fill="url(#paint0_linear_55_3)"/>
<defs>
<linearGradient id="paint0_linear_55_3" x1="7.05692" y1="11.4835" x2="31.4278" y2="41.846" gradientUnits="userSpaceOnUse">
<stop stop-color="#6BF8C2"/>
<stop offset="0.345" stop-color="#5CD5A6"/>
<stop offset="1" stop-color="#3F9272"/>
</linearGradient>
</defs>
</svg>
